<?xml version="1.0" encoding="UTF-8" standalone="no"?><!DOCTYPE svg PUBLIC "-//W3C//DTD SVG 1.1//EN" "http://www.w3.org/Graphics/SVG/1.1/DTD/svg11.dtd"><svg width="100%" height="100%" viewBox="0 0 1067 955" version="1.1" xmlns="http://www.w3.org/2000/svg" xmlns:xlink="http://www.w3.org/1999/xlink" xml:space="preserve" xmlns:serif="http://www.serif.com/" style="fill-rule:evenodd;clip-rule:evenodd;stroke-linejoin:round;stroke-miterlimit:2;"><path d="M830.65,466.888c-80.471,-80.408 -200.679,-96.7 -297.317,-48.942l319.454,319.458c13.183,13.179 35.883,7.958 41.479,-9.767c28.108,-88.987 6.904,-190.167 -63.617,-260.75Z" style="fill:#5bb974;fill-rule:nonzero;"/><path d="M236.017,466.888c80.471,-80.408 200.679,-96.7 297.317,-48.942l-319.454,319.458c-13.183,13.179 -35.883,7.958 -41.479,-9.767c-28.108,-88.987 -6.904,-190.167 63.617,-260.75Z" style="fill:#129eaf;fill-rule:nonzero;"/><path d="M806.958,218.95c-127.113,0 -235.008,83.333 -273.625,199l505.208,0c20.708,0 34.513,-21.892 25.125,-40.362c-48.012,-94.213 -144.9,-158.638 -256.708,-158.638Z" style="fill:#af5cf7;fill-rule:nonzero;"/><path d="M586.129,83.754c-89.921,89.921 -107.271,225.054 -52.796,334.192l357.263,-357.263c14.679,-14.675 8.958,-39.925 -10.758,-46.329c-100.617,-32.65 -214.667,-9.638 -293.708,69.4Z" style="fill:#ff8bcb;fill-rule:nonzero;"/><path d="M480.538,83.754c89.921,89.921 107.271,225.054 52.796,334.192l-357.263,-357.263c-14.679,-14.675 -8.958,-39.925 10.758,-46.329c100.617,-32.65 214.667,-9.638 293.708,69.4Z" style="fill:#fa7b17;fill-rule:nonzero;"/><path d="M259.708,218.95c127.113,0 235.008,83.333 273.625,199l-505.208,0c-20.708,0 -34.512,-21.892 -25.125,-40.362c48.017,-94.212 144.904,-158.638 256.708,-158.638Z" style="fill:#4285f4;fill-rule:nonzero;"/></svg>